<?xml version="1.0" encoding="UTF-8"?>
<!DOCTYPE svg PUBLIC "-//W3C//DTD SVG 1.1//EN" "http://www.w3.org/Graphics/SVG/1.1/DTD/svg11.dtd">
<!-- Creator: CorelDRAW -->
<svg xmlns="http://www.w3.org/2000/svg" xml:space="preserve" width="3327px" height="3006px" version="1.1" style="shape-rendering:geometricPrecision; text-rendering:geometricPrecision; image-rendering:optimizeQuality; fill-rule:evenodd; clip-rule:evenodd"
viewBox="0 0 5269.64 4761.57"
 xmlns:xlink="http://www.w3.org/1999/xlink"
 xmlns:xodm="http://www.corel.com/coreldraw/odm/2003">
 <defs>
  <style type="text/css">
   <![CDATA[
    .fil0 {fill:black}
    .fil1 {fill:#4B4B4B}
    .fil3 {fill:#E9A55F}
    .fil2 {fill:white}
   ]]>
  </style>
 </defs>
 <g id="Layer_x0020_1">
  <metadata id="CorelCorpID_0Corel-Layer"/>
  <g id="_2073871426944">
   <path class="fil0" d="M3088.39 210.7l-199.43 0c-5.41,-8.07 -10.8,-14.37 -16.8,-21.98 -32.24,-40.83 -83.18,-80.89 -129.08,-103.58 -5.1,-2.53 -7.84,-4.17 -12.58,-6.81 -33.21,-18.51 -94.05,-38.06 -128.8,-45.7 -91.8,-20.19 -187.96,-20.55 -279.73,0.25 -50.47,11.45 -96.32,28.58 -141.17,52.73 -16.53,8.9 -33.11,18.1 -48.22,29.32 -17.18,12.75 -49.94,37.51 -63.09,53.25 -11.59,13.87 -24.9,27.4 -35.03,42.52 -10.16,-5.37 -10.13,-4.17 -24.93,-4.15 -8.92,0.01 -20.41,-0.64 -29.01,0.07 -23.66,1.96 -95.05,0.56 -113.06,3.28 -17.32,2.63 -41.08,-0.47 -57.74,1.81 -16.6,2.28 -40,-0.3 -56.61,1.56l-99.55 1.54c-6.84,0.21 -6.93,1.27 -13.76,1.48 -9.47,0.28 -19.59,-0.04 -29.13,-0.05 -11.73,-0.01 -18.7,1.46 -29.05,1.42 -9.71,-0.04 -19.42,0 -29.12,-0.04 -11.39,-0.04 -16.91,1.47 -27.68,1.41 -9.7,-0.05 -19.41,0.02 -29.12,-0.03 -10.77,-0.07 -16.28,1.45 -27.67,1.4 -9.71,-0.03 -19.42,0.01 -29.12,-0.03 -10.17,-0.05 -16.31,1.44 -27.67,1.42 -58.35,-0.14 -115.34,4.15 -173.12,4.15 -76.31,0 -151.93,5.58 -228.51,5.54 -19.19,-0.01 -36.21,1.41 -56.78,1.38 -11.21,-0.01 -18.11,1.42 -27.65,1.43 -10.16,0.02 -20.36,0 -30.53,-0.05 -11.2,-0.06 -16.48,1.46 -27.68,1.4 -9.7,-0.05 -19.4,0.03 -29.11,-0.03 -10.77,-0.06 -16.28,1.45 -27.67,1.41 -10.17,-0.03 -20.36,-0.06 -30.52,-0.05 -9.55,0.01 -16.44,1.45 -27.66,1.43 -9.53,-0.01 -19.66,-0.33 -29.12,-0.04 -6.62,0.2 -6.33,1.11 -12.42,1.44 -14.81,0.79 -30.98,-1.15 -45.63,0.06 -20.45,1.69 -29.22,1.09 -37.08,21.09 -33.33,84.84 -64.12,169.88 -96.74,255.03l-192.89 509.27c-5.49,14.85 -10.99,28.29 -16.31,43.24 -10.4,29.19 -21.91,56.93 -32.21,85.51l-32.42 85.3c-30.27,77.34 -57.77,155.87 -88.23,233.07l-24.33 64.31c-5.98,14.8 -10.44,28.31 -16.43,43.12l-31.84 84.49c-11.05,28.83 -21.94,57.06 -32.44,85.28l-48.3 127.59c-2.49,6.2 -15.62,39.68 -15.62,43.93 0,15.64 12.21,23.54 26.31,23.54 5.92,0 21.4,-10.46 26.58,-13.59l75.31 -45.17c34.29,-20.63 66.95,-40.32 101.26,-60.78l405.27 -242.87c63.2,-37.7 127,-74.96 189.5,-113.81 8.94,-5.56 25.88,-2.58 37.24,-2.92 7.36,-0.22 10.42,-1.5 19.33,-1.45 93.07,0.54 185.68,-4.13 279.77,-4.13 105.59,0 211.84,-5.54 318.53,-5.54 105.65,0 211.82,-5.54 318.54,-5.54 105.68,0 211.82,-5.54 318.53,-5.54 0,10.48 1.42,15.73 1.43,24.88l-0.05 78.99c-0.02,10.39 1.34,16.27 1.44,24.87l-0.05 80.38c-0.03,17.43 1.38,32.48 1.38,51.25 0,17.54 0,35.08 0,52.62 0,18.54 1.39,32.33 1.39,51.25 0,139.63 4.15,281.22 4.15,421.01 0,19.18 1.41,34.85 1.39,52.63 -0.09,71.75 1.38,139 1.38,210.51 0,68.75 2.77,141.63 2.77,210.51 0,71.5 1.39,138.76 1.39,210.51 -0.01,18.32 1.38,32.29 1.38,51.24 0,123.72 3.46,245.68 2.75,369.79 -0.06,10.32 1.48,14.57 1.42,24.89 -0.75,131.91 3.06,262.41 2.75,394.73 -0.02,10.39 1.34,16.27 1.45,24.87l1.7 237.88c2.8,20.36 -3.64,29.76 11.03,41.6 10.21,8.25 31.93,3 46.74,3.08 16.25,0.09 38.35,1.24 53.96,-0.05 24.38,-2.02 100.94,-2.84 130.27,-2.69 10.54,0.05 15.05,-1.47 24.88,-1.43 16.33,0.07 38.28,1.26 53.98,-0.04l102.55 -2.7c35.79,0 68.81,-0.87 105.31,-1.33 8.6,-0.1 14.49,-1.46 24.87,-1.44 61.85,0.14 121.99,-2.77 184.2,-2.77 0,102.15 1.39,200.73 1.39,301.92l-0.01 378.09c-0.13,33.04 13.17,33.2 42.94,33.23 13.83,0.02 22.17,-1.4 36.01,-1.38l131.23 -1.72c6.66,-1.17 6.5,-2.53 16.95,-2.5 8.41,0.01 10.82,1.28 17.96,1.49l55.43 1.36c12.63,-0.07 25.93,-0.71 38.23,0.58 38.83,4.09 25.32,-56.83 25.47,-83.68l0.04 -342.11c0.07,-12.13 -1.4,-22.25 -1.4,-35.99 0,-48.19 2.07,-272.25 -1.69,-283.61 -4.84,-14.68 -2.47,-37.96 -2.47,-54.31l0 -228.51c0,-51.95 -1.38,-99.33 -1.38,-150.96 0,-50.78 0,-101.56 0,-152.34l44.31 0 0 1052.54c0,23.03 22.32,24.77 39.19,31.45 8.71,3.45 17.5,6.56 26.41,9.59 9.81,3.34 17.08,6.18 26.67,9.35 18.47,6.09 35.55,12.79 53.34,18.67 9.09,3.01 17.08,6 26.66,9.35 9.07,3.17 17.38,6.16 26.36,9.64l52.21 18.43c79.82,26.67 159.13,56.32 238.58,84.11 57.71,20.18 114.61,41.88 172.74,61.31l66.41 23.61c15.81,5.1 116.64,0.09 141.17,0.09 95.5,0 188.53,-2.77 283.91,-2.77 25.32,0 45.9,-1.38 70.63,-1.38 24,0 48.01,-0.05 72.02,0 13.26,0.03 21.13,-1.4 34.62,-1.39l90.05 0.03c8.04,0.04 10.15,-1.07 16.58,-1.42 22.13,-1.19 48.08,0.01 70.64,0.01 25.29,0 46.26,-1.39 70.63,-1.39 96.29,0 189.44,-2.77 285.3,-2.77 25.16,0 46.68,-1.38 70.63,-1.38 18.86,0 49.85,5.2 49.85,-22.16 0,-8.36 -7.84,-21.28 -11.08,-27.69l-184.19 -372.55c-48.84,-96.72 -95.59,-195.34 -144.03,-292.22l-131.57 -265.91c-8.77,-17.54 -17.54,-35.08 -26.31,-52.63 -4.48,-8.95 -8.22,-17.9 -12.93,-27.24 -4.72,-9.37 -8.89,-17.77 -13.39,-26.77 -15.42,-30.84 -31.73,-61.09 -45.72,-92.77 -18.05,-40.86 -42.92,-78.8 -59.73,-120.31 -9.39,-23.21 -40.99,-82.57 -52.89,-106.38 -4.56,-9.11 -7.87,-17.21 -12.46,-26.31l-92.8 -186.96c-88.52,-177.06 -174.57,-354.7 -263.13,-531.82 -4.56,-9.11 -7.87,-17.21 -12.46,-26.31 -1.97,-3.9 -5.47,-9.8 -6.15,-13.24 -1.64,-8.18 -3.09,-116.74 -3.09,-136.79l-1.4 -38.76c0.07,-13.39 -0.01,-26.79 0.02,-40.19 0.03,-14.16 -1.39,-23.87 -1.39,-38.77 0.01,-78.89 -4.16,-155.29 -4.15,-234.06 0,-14.84 -1.44,-25.02 -1.39,-38.77 0.05,-13.39 -0.06,-26.78 0.01,-40.17 0.07,-12.97 -1.39,-23.08 -1.39,-37.39 0,-12.82 0.68,-27.59 0,-40.17l-1.39 -37.38c0,-12.89 1.04,-27.19 -0.8,-39.37 -2.78,-18.38 -0.63,-38.84 -0.55,-57.61 0.04,-8.86 -1.37,-11.3 -1.47,-19.3 -0.17,-13.34 0.05,-26.86 0.05,-40.22 0.01,-14.86 -1.4,-24.28 -1.38,-38.78 0.13,-104.98 -5.67,-208.03 -5.54,-312.99 0.02,-14.17 -1.4,-23.03 -1.39,-37.4 0.01,-13.4 0.07,-26.81 0.05,-40.2 -0.01,-8.33 -1.39,-10.05 -1.49,-17.91 -0.23,-19.19 2.24,-41.94 -0.32,-60.61 -2.28,-16.61 -1.09,-39.08 -1,-57.17 0.05,-8.8 -1.03,-12.5 -1.4,-19.37 -0.68,-12.58 0.01,-27.35 0.01,-40.17 0,-14.84 -1.44,-25.03 -1.39,-38.78 0.05,-12.92 -0.02,-25.85 0,-38.78 0.04,-14.17 -1.38,-23.88 -1.38,-38.78 0.01,-79.15 -4.16,-156.09 -4.16,-235.43 7.57,-2.02 14.95,-10.18 21.17,-14.84l633.9 -472.66c9.07,-6.78 16.62,-11.73 16.62,-24.93 0,-7.59 -4.07,-14.21 -8.82,-17.49 -13.1,-9.03 -58.86,-3.28 -75.66,-3.28l-81.73 -0.02c-10.56,-0.06 -15.39,1.47 -26.28,1.41 -30.04,-0.15 -81.18,-2.54 -107.03,1 -20.13,2.76 -83.79,0.01 -109.09,0.32 -8.6,0.11 -14.48,1.47 -24.87,1.45l-81.71 -0.01c-18.42,0 -33.26,1.39 -52.63,1.39 -18.46,0 -36.93,0 -55.39,0 -19.37,0 -34.22,1.39 -52.63,1.38l-163.42 1.39c-13.29,-19.84 -28.36,-37.79 -43.98,-55.74 -4.04,-4.64 -6.86,-5.77 -11.09,-9.68 -26.78,-24.77 -35.5,-32.35 -67.08,-53.41 -69.85,-46.58 -152.58,-74.57 -236.31,-86.38 -104.37,-14.72 -222.54,-6.63 -320.16,32.09 -50.28,19.95 -100.34,43.18 -142.33,77.88 -4.05,3.35 -7.81,5.64 -11.71,9.06 -27.47,24.16 -37.02,33.55 -59.56,60.93 -3.93,4.78 -14.84,18.42 -16.29,23.86z"/>
   <path class="fil1" d="M2946.54 2264.64c-3.03,3.18 -7.12,9.11 -10.72,13.55 -4.28,5.3 -7.82,9.28 -11.79,14.52l-152.22 187.08c-19,22.66 -31.14,8.53 -46.04,-7.74l-101.2 -106.54c-10.69,-9.66 -16.37,-17.54 -25.63,-27.02 -7.18,-7.35 -47.59,-50.55 -52.06,-52.6 -5.66,3.3 -78.6,100.5 -89.13,113.9 -7.46,9.51 -83.36,110.27 -90.14,114.86 -20.14,13.63 -36.11,-16.43 -55.51,-38.85 -37.76,-43.63 -78.22,-96.14 -116.23,-139.99l-16.86 -20.56c-2.89,-3.86 -2.7,-5.14 -8.61,-4.85l16.94 1707.93c40.84,1.52 87.22,-1.44 128.26,-2.2l883.16 -18.07 0.51 -10.66c-0.28,-103.87 -0.27,-207.74 -0.45,-311.61l-0.34 -234.05c-0.02,-26.53 -6.84,-56.5 22.86,-56.45 24,0.04 48.01,0.21 72.02,0.27 33.13,0.09 33.9,6.28 33.9,38.17l0.82 1043.98c14.37,6.21 33.65,12.29 49.05,17.57l148.31 52.5c66.22,23.96 132.39,46.34 198.51,70.17l296.63 104.98c13.93,5.03 108.77,1.02 131.38,0.76l929.33 -10.86c19.99,-0.23 120.72,1 131.38,-2.2 0.92,-8.74 -28.31,-61.55 -34.29,-73.48l-107.06 -217.13c-47.8,-97.3 -95.76,-192.4 -143.57,-289.8 -237.57,-484.04 -479.28,-966.59 -716.98,-1450.53 -6.15,-12.52 -51.23,-99.9 -52.67,-109.07l-5.04 -239.29c-0.15,-7.69 1.17,-20.1 -2.46,-24.5 -4.31,1.36 -8.38,7.21 -12.91,12.92 -3.77,4.74 -8.09,10.08 -11.94,14.43l-98.2 115.02c-8.11,9.9 -16.95,19.1 -24.79,29.25 -7.87,10.2 -16.68,19.11 -24.74,29.3 -25.9,32.72 -37.28,10.97 -58.06,-16.36 -13.56,-17.84 -158.41,-206.93 -164.04,-211.34 -4.93,2.09 -46.31,51.82 -52.71,59.54 -8.67,10.44 -16.95,19.95 -25.55,29.85 -4.77,5.51 -8.29,9.11 -12.93,14.71l-39.03 45.44c-17.47,19.51 -50.84,61.51 -65.08,76.23 -22.86,23.63 -33.98,2 -47.95,-17.09l-144.41 -194.93c-3.89,-5.29 -7.78,-10.21 -11.89,-15.78 -3.54,-4.8 -8.36,-13.38 -13.16,-16.37 -6.69,3.52 -41.2,65.81 -44.82,71.96l-108.56 182.27c-24.95,42.17 -37.97,15.32 -61.28,-14.21 -8.52,-10.8 -17.23,-22.08 -25.61,-32.57l-147.87 -187.26c-3.26,-4.09 -3.69,-5.84 -8.53,-7.2z"/>
   <path class="fil2" d="M4021.03 254.23c1.39,6.18 6.03,14.99 8.7,21.97 3.09,8.04 5.76,16.86 8.15,25.07 5.07,17.41 8.48,36.02 10.05,54.86 6.16,73.56 -14.22,144.66 -55.15,202.24 -11.92,16.77 -23.28,30.62 -36.84,44.83 -52.3,54.83 -117.36,93.53 -190.16,121.48 -135.41,51.98 -311.14,51.72 -446.82,0.53 -32.86,-12.39 -60.39,-25.35 -88.73,-41.45 -28.01,-15.9 -52.27,-35.44 -76.67,-54.92 -3.76,-3.01 -4.1,-3.96 -7.53,-7.65 -23.73,-25.54 -28.35,-25.46 -53.67,-61.33 -18.32,-25.96 -32.67,-53.3 -43.79,-87.77 -23.16,-71.73 -16.73,-155.69 14.3,-218l-148.4 -0.8c89.23,195.43 -28.91,356.83 -198.39,438.26 -83.13,39.95 -189,59.26 -293.52,53.25 -75.22,-4.33 -143.74,-21.8 -210.53,-51.1 -16.89,-7.4 -49.64,-27.4 -57.21,-30.3 0.93,265.27 1.16,531.36 4.71,796.51l9.08 740.93c0.11,8.22 -2.33,48.21 2.59,51.39l6.78 3.13c9.48,4.61 140.69,167.43 166.09,196.76 3.43,3.97 7.52,11.43 13.28,13.01 53.05,-67.2 104.95,-136.77 157.6,-204.82 6.97,-9.01 13.93,-23.93 26.74,-25.86 15.39,-2.31 23.61,13.34 30.66,19.89l38.23 39.29c4.49,4.92 8.08,8.82 12.58,13.75l102.43 106.66c5.42,5.91 19.7,24.44 26.26,26.29 5.01,-3.37 168.53,-205.27 176.84,-216.37 9.44,-12.61 24.57,-18.64 36.25,-3.52 16.3,21.11 33.01,42.38 49.33,62.85l73.97 93.59c9.46,12.07 69.12,90.99 76.11,93.57 15.77,-20.83 28.53,-48.3 42.6,-70.72 36.92,-58.84 70.81,-119.38 106.52,-178.73 6.82,-11.33 12.58,-29.77 30.65,-26.59 12.71,2.24 21.25,19.17 28.18,28.6 7.97,10.85 16,21.39 24.2,32.56 10.69,14.56 140.81,193.2 147.53,197.15 6.7,-2.99 43.76,-49.42 51.82,-58.76 8.59,-9.95 16.84,-19.38 25.53,-29.87l76.57 -89.66c8.72,-10.47 16.94,-19.95 25.54,-29.87 6.81,-7.87 18.84,-25.82 29.77,-27.17 16.25,-2.02 23.98,13.66 31.46,23.91 46.92,64.32 98.66,124.17 145.46,188.29 5.87,8.03 18.47,25.61 25.17,31.39 8.02,-3.02 56.52,-64.7 66.46,-75.98 8.34,-9.46 14.78,-17.02 22.29,-26.19 7.42,-9.08 14.66,-16.23 21.72,-25.32 20.68,-26.58 57.92,-67.49 82.06,-96.62 3.97,-4.78 3.2,-2.18 3.36,-9.59 0.78,-34.73 -2.16,-104.02 -2.91,-141.34 -8.78,-438.47 -16.33,-876.99 -26.1,-1315.5 -1.08,-48.48 -9.35,-47.3 22.68,-71.04 197.27,-146.19 393.12,-294.1 590.36,-440.02 4.8,-3.56 11.48,-6.31 12.06,-12.67l-726.3 7.52z"/>
   <path class="fil3" d="M666.83 284.81c-4.75,6.62 -70.52,184.27 -75.55,197.26 -25.45,65.72 -49.69,131.89 -74.97,197.85 -50.57,131.96 -99.21,264.6 -150.24,396.8 -51.01,132.13 -99.95,264.48 -150.23,396.82 -24.99,65.77 -50.13,131.79 -74.92,197.92 -8.51,22.71 -74.46,192.05 -74.13,199.17l738.28 -442.18c14.07,-8.46 12.3,-7.25 31.43,-7.57l1124.61 -19.25c50.99,-0.78 104.16,-0.44 154.93,-2.78l-13.06 -739.86c-12.38,-8.14 -25.08,-22.76 -35.17,-32.96 -11.82,-11.97 -20.68,-23.34 -31.23,-37.97 -17.99,-24.94 -32.8,-60.37 -39.95,-97.03 -1.86,-9.53 -2.8,-19.38 -5.24,-28.1 -14.02,-50.09 -17.18,-101.09 -3.48,-151.91 4.63,-17.16 10.46,-40.43 8.66,-59.66l-1329.74 33.45z"/>
   <path class="fil2" d="M3502.88 45.46c-59.95,3.6 -114.71,15.24 -166.5,33.76 -23.87,8.53 -48.15,19.21 -68.9,30.83 -11.3,6.32 -21.13,12.11 -31.39,18.45 -11.44,7.08 -19.49,13.31 -30,21.24 -194.27,146.56 -156.78,382.19 48.3,497.41 96.41,54.16 197.23,77.39 327.04,71.85 101.82,-4.35 220.64,-43.47 296.36,-103.93 36.68,-29.29 68.24,-60.29 93.73,-105.65 41.59,-74.03 46.24,-160.51 7.17,-240.36 -10.19,-20.83 -25.85,-45.18 -39.35,-60.34 -38.19,-42.9 -58.6,-61.04 -109.49,-91.32 -86.55,-51.5 -206.66,-79.17 -326.97,-71.94z"/>
   <path class="fil2" d="M2434.59 61.83c-117.37,7.39 -209.86,39.38 -284.96,95.09 -59.99,44.5 -137.92,130.07 -124.67,251.81 7.7,70.66 51.13,136.84 103.13,180.58 37.73,31.75 71.46,51.8 118.11,71.62 124.09,52.73 277.66,53.53 404.13,10.53 49.23,-16.75 114.9,-52.68 150.67,-86.18 63.57,-59.54 108.81,-133.57 98.31,-229.93 -11.45,-105.11 -92.62,-181.97 -158.42,-220.93 -81.14,-48.04 -191.05,-79.85 -306.3,-72.59z"/>
   <path class="fil3" d="M2927.02 4045.64l0.71 671.06c23.39,1 48.92,-0.41 72.02,-0.66 12,-0.13 24.02,-0.32 36.02,-0.35 14.59,-0.05 17.55,-3.37 31.45,-5.6l2.19 -667.25 -142.39 2.8z"/>
   <polygon class="fil3" points="3112.29,4043.91 3110.19,4711.99 3204.04,4714.82 3201.62,4043.04 "/>
   <path class="fil0" d="M3426.38 291.84c-38.22,4.69 -68.82,14.89 -92.16,34.49 -81.79,68.7 8.2,179.39 154.55,165.99 47.58,-4.35 103.01,-26.51 118.65,-71.44 17.67,-50.74 -23.05,-92.92 -71.6,-113.35 -30.4,-12.79 -72.62,-20.2 -109.44,-15.69z"/>
   <path class="fil0" d="M2504.08 300.18c-57.98,6.29 -119.24,38.47 -110.37,102.43 7.36,53.13 72.8,84.3 135.21,79.79 55.87,-4.04 118.74,-41.76 108.42,-103.28 -4.95,-29.51 -25.96,-49.01 -46.15,-60.38 -22.11,-12.46 -56.86,-21.84 -87.11,-18.56z"/>
  </g>
 </g>
</svg>
