<?xml version="1.0" encoding="UTF-8"?>
<!DOCTYPE svg PUBLIC "-//W3C//DTD SVG 1.1//EN" "http://www.w3.org/Graphics/SVG/1.1/DTD/svg11.dtd">
<!-- Creator: CorelDRAW -->
<svg xmlns="http://www.w3.org/2000/svg" xml:space="preserve" width="3329px" height="2815px" version="1.1" style="shape-rendering:geometricPrecision; text-rendering:geometricPrecision; image-rendering:optimizeQuality; fill-rule:evenodd; clip-rule:evenodd"
viewBox="0 0 2901.72 2453.55"
 xmlns:xlink="http://www.w3.org/1999/xlink"
 xmlns:xodm="http://www.corel.com/coreldraw/odm/2003">
 <defs>
  <style type="text/css">
   <![CDATA[
    .fil0 {fill:black}
    .fil3 {fill:#FDE1C3}
    .fil2 {fill:#FEFEFE}
    .fil1 {fill:#FF7E00}
   ]]>
  </style>
 </defs>
 <g id="Layer_x0020_1">
  <metadata id="CorelCorpID_0Corel-Layer"/>
  <g id="_2073721998816">
   <path class="fil0" d="M385.01 717.63c-68.51,-1.52 -197.53,-30.96 -275.34,11.56 -37.19,20.32 -53.6,41.07 -72.14,80.39 -25.76,54.61 -56.17,296.37 -22.93,380.15 20.16,50.82 45.34,96.39 88.61,129.28 17.32,13.17 52.66,32.01 78.43,34.16 -7.84,29.37 -117.02,121.04 -14.59,276.06 9.08,13.74 16.13,20.49 25.48,32.63 31.53,40.94 89.96,75.11 141.64,87.15 -34.38,71.65 -23.14,134.4 54.36,163.54 94.46,35.51 234.86,27.89 331.81,-20.69 38.51,-19.3 106.25,-68.14 129.52,-102.9l223.66 146.76c26.85,17.58 52.18,32.3 77.8,49.31 24.88,16.52 48.97,31.41 74.77,48.71l155.13 95.45c109.85,65.52 208.94,120.26 323.27,177.89 15.11,7.61 28.17,12.47 42.38,19.36 116.69,56.61 313.33,127.11 439.42,127.11 116.5,0 204.31,-10.12 301.48,-58.06 105.33,-51.95 104.39,-59.87 183.63,-121.42 81.82,-63.55 230.32,-266.6 230.32,-379.79 0,-104.71 -22.8,-154.64 -73.82,-249.39l-104.13 -175.51c83.69,-44.28 127.11,-315.82 127.11,-414.01 0,-178.62 -35.64,-296.47 -132.89,-437.27l-44.18 -53.87c-31.51,-33.68 -31,-41.84 -81.31,-82.11l-72.09 -58.65c-67.45,-50.75 -90.43,-61 -159.07,-102.41 -165.14,-99.64 -481.46,-216.04 -663.22,-255.58 -90.15,-19.62 -182.01,-41.73 -275.1,-51.75 -21.01,-2.26 -38.31,-2.76 -59.55,-5.82 -41.82,-6.01 -195.72,-11.65 -247.52,-4.72 -38.94,5.22 -76.99,9.4 -113.9,16.83 -79.72,16.06 -214.36,67.51 -276.53,119.32 -12.78,10.65 -23.44,18.16 -36.6,28.77 -137.55,111 -219.1,278.74 -274.39,444.67 -7.85,23.54 -28.96,79.62 -29.52,104.85z"/>
   <path class="fil1" d="M370.62 764.85c-44.73,-12.85 -183.34,-15.05 -225.43,-0.18 -61.79,21.83 -76.77,84.67 -86.03,158.98 44.03,-1.55 61.79,-40.05 193.42,-8.14 21.08,5.1 44.97,8.69 40.77,33.61 -6.11,36.24 -82.25,3.66 -115.47,1.34 -33.04,-2.31 -102.51,16.25 -123.34,28.76 -10.33,27.47 -8.85,130.78 -2.32,162 34.51,-15.43 72.23,-31.06 115.16,-38.49 32.2,-5.56 117.75,-2.99 130.12,22.31 25.15,51.47 -72.31,20.21 -112.39,23.77 -33.85,3 -99.13,25.69 -118.67,40.93 48.29,122 127.66,134.59 233.47,107.53 27.31,-6.99 77.93,-15.63 96.26,-27.63 -1.06,-18.23 -8.05,-42.45 -12.27,-60.6 -5.18,-22.29 -14.8,-45.32 7.15,-57.27 39.51,-16.61 37.33,51.57 49.8,94.55 0.01,0 2.71,7.63 3.04,8.26 9.04,17.64 40.77,10.14 79.14,10.76 33.56,0.55 54.44,-3.78 50.61,34.65 -41.37,31.35 -103.31,-1.93 -171.27,19.74 -24.45,7.8 -49.41,15.33 -75.75,22.33 -24.11,6.4 -61.5,9.87 -81.43,16.64 -22.82,7.76 -67.68,86.88 -73.37,122.89 -9.09,57.53 25.86,111.89 50.49,143.26 57.5,73.2 170.24,103.92 296.68,90.78 22,-2.29 64.58,-15.88 80.32,-3.11 11.95,9.69 9.58,25.63 1.08,33.89 -13.96,13.54 -107.89,19.58 -128.1,20.54 -32.45,1.55 -64.65,-5 -94.4,-3.2 -18.62,64.57 -28.99,90.25 42.33,109.74 116.33,31.8 265.32,11.06 355.09,-75.52 12.95,-12.49 35.7,-35.05 48.89,-44.96 -2.37,-201.71 -77.63,-214.33 -264.86,-203.94 -26.95,1.5 -128.12,16.21 -142.58,4.67 -17.28,-13.8 -8.18,-37.52 19.14,-40.69 59.05,-6.85 174.94,-15.09 228.85,-12.04 144.04,8.14 187.76,72.35 201.47,195.82 7.72,69.53 -10.05,35.26 116.02,123.1 60.7,42.29 128.91,85.36 193.53,126.09 231.58,145.97 571.98,363.34 842.66,432 208.38,52.87 359,35.56 520.01,-62.57 119.36,-72.75 243.85,-211.24 295.74,-339.76 41.11,-101.83 18.48,-169.74 -21.58,-257.52 -25.28,-55.42 -144.91,-250.64 -145,-250.94 -8.57,-29.7 19.56,-28.18 36.14,-39.59 65.05,-44.77 99.69,-303.07 100.84,-379.53 1.5,-99.38 -16.33,-188.04 -50.24,-270.31 -15.68,-38.03 -33.88,-72.44 -55.63,-104.03 -18.29,-26.56 -48.15,-68.88 -69.27,-90.68 -216,-222.83 -537.22,-359.29 -831.89,-442.65 -171.75,-48.58 -351.31,-85.78 -541.7,-92.67 -403.64,-14.6 -634.28,157.61 -770.63,504.97 -29.57,75.34 -59.18,165.45 -69.81,249.46 -3.68,29.04 -1.95,49.44 1.79,76.17 4.54,32.41 -19.15,45.93 -37.31,29.77 -25.9,-23.04 -8.08,-109.45 -9.27,-143.29z"/>
   <path class="fil0" d="M1388.36 354.6l-59.45 26.78c-26.2,-20.04 -45.38,-85.87 -77.46,-68.54 -21.54,17.73 -10.29,31.15 2.29,48.09 12.01,16.17 22.92,30.98 32.63,48.02 -19.12,24.35 -70.73,53.01 -112.91,134.81 -151.61,293.99 61.61,614.2 366.41,614.2 229.94,0 415.2,-184.99 415.74,-418.54 0.54,-227.56 -188.08,-413.99 -415.74,-413.99 -38.68,0 -75.31,10.8 -105.32,11.18 -32.43,-49.48 -35.09,-106.33 -71.02,-93.6 -37.98,13.45 18.75,85.01 24.83,111.59z"/>
   <path class="fil2" d="M1493.51 375.17c-210.07,29.36 -347.46,214.42 -321.19,415.27 24.3,185.84 196.96,349.09 414.36,318.9 203.09,-28.2 346.27,-209.24 320.27,-413.49 -13.97,-109.74 -72.21,-190.94 -131.71,-238.98 -67.08,-54.17 -164.94,-98.03 -281.73,-81.7z"/>
   <path class="fil0" d="M2664.78 1217.9c26.18,1 92.43,15.12 95.24,-14.13 3.12,-32.39 -70.79,-24.08 -94.13,-24.93l-5.62 -58.49c26.5,-2.12 71.39,-6.51 93.61,-13.45 1.52,-4.13 4.51,-9.88 4.41,-15.39 -0.64,-36.86 -68.92,-8.28 -107.15,-9.81 -23.49,-42.43 -17.13,-55.93 -58.47,-109.51 -79.19,-102.64 -220.26,-160.16 -357.33,-122 -179.38,49.94 -290.74,219.9 -268.46,399.58 21.34,172.15 168.87,321.35 364.74,306.68 176.7,-13.24 322.25,-160.14 333.16,-338.55z"/>
   <path class="fil2" d="M2287.04 880.93c-161.71,21.62 -294.98,163.4 -282.22,348.78 11.38,165.42 157.09,310.99 342.67,284.26 158.35,-22.8 292.4,-165.47 277.78,-349.73 -12.98,-163.49 -156.14,-307.66 -338.23,-283.31z"/>
   <path class="fil0" d="M1103.41 141.82c-77.89,5 -158.63,19.16 -220.52,49.74 -47.57,23.5 -81.1,53.23 -114.72,88.52 -43.32,45.46 -125.89,131.23 -143.54,194.06 -22.35,79.56 86.5,205.04 209.51,64.34l64.29 -70.02c137.29,-163.85 223.59,-52.29 322.59,-218.63 17.08,-28.71 31.68,-71.2 3.07,-95.23 -25.88,-21.75 -83,-15.2 -120.68,-12.78z"/>
   <path class="fil0" d="M1147.37 1382.93c29.95,41.04 71.11,108.4 102.91,147.26 65.75,80.37 116.32,149.14 215.08,213.38 118.8,77.27 236,104.71 374.34,137.63 44.8,10.66 100.4,15.99 141.83,29 28.12,250.06 253.06,238.96 262.85,231.03 12.47,-13.42 9.18,-31.39 -5.68,-37.94 -8.19,-3.6 -40.07,-6.58 -52.26,-9.28 -35.12,-7.78 -62.89,-16.61 -87.22,-36.32 -92.81,-75.17 -101.84,-267.63 6.71,-334.53 26.15,-16.12 61.3,-23.06 98.07,-25.88 42.53,-3.26 89.33,10.22 77.12,-40.35 -38.64,-25.31 -171.25,7.07 -207.88,33.48 -46.35,33.43 -82.86,88.69 -91.59,170.18 -28.91,-0.01 -103.77,-17.96 -135.88,-24.91 -45.67,-9.87 -91.09,-20.94 -133.85,-33.47 -83.97,-24.62 -168.28,-59.83 -228.19,-102.4 -51.74,-36.76 -49.33,-35.89 -88.72,-74.67 -44.17,-43.49 -36.29,-34 -79.72,-87.34 -48.22,-59.24 -95.29,-126.91 -139.19,-195.53 12.96,-57 120.79,-169.82 -17.32,-316.16 -13.81,-14.63 -59.32,-66.03 -83.11,-61.36 -12.76,2.5 -28.81,22.27 -2.75,45.47 12.27,10.93 24.93,21.7 38.75,33.87 108.57,95.62 76.08,196.8 2.5,304.68 -136.97,200.82 -292.21,23.77 -334.45,16.28 -24.48,-4.34 -35.38,24.21 -20.94,39.13 7.56,7.81 74.23,44.46 91.58,53.68 100.07,53.16 185.05,42.47 261.29,-35.41 12.63,-12.9 23.18,-26.89 35.72,-39.52z"/>
   <path class="fil0" d="M899.53 1009.81c-196.58,44.88 -146.89,375.24 53.27,329.86 74.2,-16.83 135.13,-97.73 123.46,-192 -10.19,-82.35 -79.64,-160.02 -176.73,-137.86z"/>
   <path class="fil0" d="M1542.59 617.55c-75.69,12.66 -141.7,86.29 -126.05,179.62 12.51,74.56 86.91,140.37 178.39,125.07 75.67,-12.66 141.05,-86.55 126.19,-178.74 -12.13,-75.25 -86.61,-141.33 -178.53,-125.95z"/>
   <path class="fil0" d="M2238.97 1723.3c-73.01,20.04 -133.08,80.25 -141.16,167.18 -8.65,93.02 63.73,170.71 157.48,145.26 70.09,-19.03 131.42,-83.64 139.24,-166.72 8.68,-92.34 -60.54,-171.81 -155.56,-145.72z"/>
   <path class="fil3" d="M1194.02 188.51c-53.52,-8.72 -153.11,1.95 -204.93,14.75 -77.69,19.17 -99.93,34.24 -151.17,73.9 -22.88,17.71 -35.68,35.84 -54.92,54.11 -21.56,20.48 -34.64,38.1 -52.68,59.88 -22.29,26.9 -94.33,107.08 -46.04,147.07 62.36,51.63 109.2,-26.16 136.45,-53.17 40.65,-40.31 58.49,-72.51 112.19,-112.93 93.18,-70.11 158.14,-32.51 224.05,-110.05 11.63,-13.68 39.82,-50.14 37.05,-73.56z"/>
   <path class="fil0" d="M2267.11 1057.94c-41.55,5.81 -65.52,21.73 -86.1,46.53 -67.79,81.66 4.01,230.03 135.71,208.19 64.75,-10.73 120.1,-73.86 101.12,-151.22 -14.7,-59.94 -73.22,-114.34 -150.73,-103.5z"/>
   <path class="fil3" d="M909.8 1054.98c-142.03,32.4 -104.03,272.45 34.2,239.65 133.52,-31.67 106.08,-271.65 -34.2,-239.65z"/>
   <path class="fil3" d="M2242.29 1770.28c-48.24,14.71 -90.19,59.25 -98.02,118.79 -19.79,150.36 183.95,129.46 203.76,-18.71 9.06,-67.8 -36.14,-121.3 -105.74,-100.08z"/>
   <path class="fil0" d="M1627.37 204.71c-12.5,7.25 -19.61,21.37 -8.53,34.17 10.67,12.33 33.05,8.07 51.76,7.36 80.07,-3.05 119.57,5.13 178.49,49.58 10,7.54 24.37,18.55 32.08,26.11 9.79,9.61 18.95,22.82 37.23,15.27 14.49,-5.98 15.97,-24.01 8.61,-35.57 -9.12,-14.33 -82.02,-64.92 -99.84,-74.6 -32.29,-17.55 -166.13,-41.83 -199.8,-22.32z"/>
   <path class="fil0" d="M2468.28 588.95c-37.04,23.59 25.38,55.98 37.34,63.61 42.27,26.97 103.6,72.62 125.16,118.11 12.16,25.66 14.83,85.4 50.04,67.91 24.6,-12.21 -0.35,-70.53 -9.54,-90.4 -13.38,-28.95 -34.87,-49.96 -54.49,-68.77l-67.46 -52.46c-15.1,-10.08 -60.78,-50.91 -81.05,-38z"/>
  </g>
 </g>
</svg>
